<svg width="18" height="18" viewBox="0 0 18 18" fill="none" xmlns="http://www.w3.org/2000/svg">
<path d="M12.4996 11.5H11.7096L11.4296 11.23C12.6296 9.83002 13.2496 7.92002 12.9096 5.89002C12.4396 3.11002 10.1196 0.890015 7.31965 0.550015C3.08965 0.0300153 -0.470351 3.59001 0.049649 7.82001C0.389649 10.62 2.60965 12.94 5.38965 13.41C7.41965 13.75 9.32965 13.13 10.7296 11.93L10.9996 12.21V13L15.2496 17.25C15.6596 17.66 16.3296 17.66 16.7396 17.25C17.1496 16.84 17.1496 16.17 16.7396 15.76L12.4996 11.5ZM6.49965 11.5C4.00965 11.5 1.99965 9.49002 1.99965 7.00002C1.99965 4.51002 4.00965 2.50002 6.49965 2.50002C8.98965 2.50002 10.9996 4.51002 10.9996 7.00002C10.9996 9.49002 8.98965 11.5 6.49965 11.5Z" fill="#A2A2A2"/>
</svg>
